# xmcd CD database file
#
# Track frame offsets:
#	150
#	57849
#	77812
#	122605
#	161064
#	186929
#	214412
#	256599
#	286426
#	321037
#
# Disc length: 4749 seconds
#
# Revision: 0
# Processed by: cddbd v1.5.2PL0 Copyright (c) Steve Scherf et al.
# Submitted via: CDex 1.51
#
DISCID=8d128b0a
DTITLE=Various Artist - New York is Our Home
DYEAR=2008
DGENRE=Jazz
TTITLE0=Horace Silver - Doodlin
TTITLE1=Lee Morgan - Gaza Strip
TTITLE2=Elmo Hope - Abdullah
TTITLE3=Bud Powell - Buster Rides Again
TTITLE4=Johnny Griffin - The Congregation
TTITLE5=Thad Jones - Zec
TTITLE6=Curtis Fuller - Algonquin
TTITLE7=Louis Smith - Ande
TTITLE8=J R Montrose - Wee Jay
TTITLE9=Jay Jay Johnson - Coffee Pot
EXTD=YEAR: 2008
EXTT0=
EXTT1=
EXTT2=
EXTT3=
EXTT4=
EXTT5=
EXTT6=
EXTT7=
EXTT8=
EXTT9=
PLAYORDER=
